<svg width="375" height="2133" viewBox="0 0 375 2133" fill="none" xmlns="http://www.w3.org/2000/svg">
<g clip-path="url(#clip0_176_7276)">
<rect y="0.400391" width="375" height="2132" fill="#FFEDF0"/>
<circle cx="6.08715" cy="92.0383" r="1.63793" fill="white"/>
<circle cx="6.08715" cy="101.866" r="1.63793" fill="white"/>
<circle cx="6.08715" cy="111.694" r="1.63793" fill="white"/>
<circle cx="6.08715" cy="121.521" r="1.63793" fill="white"/>
<circle cx="15.9133" cy="92.0383" r="1.63793" fill="white"/>
<circle cx="15.9133" cy="101.866" r="1.63793" fill="white"/>
<circle cx="15.9133" cy="111.694" r="1.63793" fill="white"/>
<circle cx="15.9133" cy="121.521" r="1.63793" fill="white"/>
<circle cx="25.7414" cy="92.0383" r="1.63793" fill="white"/>
<circle cx="25.7414" cy="101.866" r="1.63793" fill="white"/>
<circle cx="25.7414" cy="111.694" r="1.63793" fill="white"/>
<circle cx="25.7414" cy="121.521" r="1.63793" fill="white"/>
<circle cx="35.5696" cy="92.0383" r="1.63793" fill="white"/>
<circle cx="35.5696" cy="101.866" r="1.63793" fill="white"/>
<circle cx="35.5696" cy="111.694" r="1.63793" fill="white"/>
<circle cx="35.5696" cy="121.521" r="1.63793" fill="white"/>
<circle cx="45.3957" cy="92.0383" r="1.63793" fill="white"/>
<circle cx="45.3957" cy="101.866" r="1.63793" fill="white"/>
<circle cx="45.3957" cy="111.694" r="1.63793" fill="white"/>
<circle cx="45.3957" cy="121.521" r="1.63793" fill="white"/>
<circle cx="55.2239" cy="92.0383" r="1.63793" fill="white"/>
<circle cx="55.2239" cy="101.866" r="1.63793" fill="white"/>
<circle cx="55.2239" cy="111.694" r="1.63793" fill="white"/>
<circle cx="55.2239" cy="121.521" r="1.63793" fill="white"/>
<circle cx="65.052" cy="92.0383" r="1.63793" fill="white"/>
<circle cx="65.052" cy="101.866" r="1.63793" fill="white"/>
<circle cx="65.052" cy="111.694" r="1.63793" fill="white"/>
<circle cx="65.052" cy="121.521" r="1.63793" fill="white"/>
<circle cx="74.8801" cy="92.0383" r="1.63793" fill="white"/>
<circle cx="74.8801" cy="101.866" r="1.63793" fill="white"/>
<circle cx="74.8801" cy="111.694" r="1.63793" fill="white"/>
<circle cx="74.8801" cy="121.521" r="1.63793" fill="white"/>
<circle cx="84.7063" cy="92.0383" r="1.63793" fill="white"/>
<circle cx="84.7063" cy="101.866" r="1.63793" fill="white"/>
<circle cx="84.7063" cy="111.694" r="1.63793" fill="white"/>
<circle cx="84.7063" cy="121.521" r="1.63793" fill="white"/>
<circle cx="94.5344" cy="92.0383" r="1.63793" fill="white"/>
<circle cx="94.5344" cy="101.866" r="1.63793" fill="white"/>
<circle cx="94.5344" cy="111.694" r="1.63793" fill="white"/>
<circle cx="94.5344" cy="121.521" r="1.63793" fill="white"/>
<circle cx="104.363" cy="92.0383" r="1.63793" fill="white"/>
<circle cx="104.363" cy="101.866" r="1.63793" fill="white"/>
<circle cx="104.363" cy="111.694" r="1.63793" fill="white"/>
<circle cx="104.363" cy="121.521" r="1.63793" fill="white"/>
<ellipse cx="2.13458" cy="748.735" rx="1.3299" ry="1.32995" fill="white"/>
<ellipse cx="2.13458" cy="756.715" rx="1.3299" ry="1.32995" fill="white"/>
<ellipse cx="2.13458" cy="764.694" rx="1.3299" ry="1.32995" fill="white"/>
<ellipse cx="2.13458" cy="772.673" rx="1.3299" ry="1.32995" fill="white"/>
<ellipse cx="10.0936" cy="748.732" rx="1.3299" ry="1.32995" fill="white"/>
<ellipse cx="10.0936" cy="756.712" rx="1.3299" ry="1.32995" fill="white"/>
<ellipse cx="10.0936" cy="764.692" rx="1.3299" ry="1.32995" fill="white"/>
<ellipse cx="10.0936" cy="772.672" rx="1.3299" ry="1.32995" fill="white"/>
<ellipse cx="18.0877" cy="748.735" rx="1.3299" ry="1.32995" fill="white"/>
<ellipse cx="18.0877" cy="756.715" rx="1.3299" ry="1.32995" fill="white"/>
<ellipse cx="18.0877" cy="764.694" rx="1.3299" ry="1.32995" fill="white"/>
<ellipse cx="18.0877" cy="772.673" rx="1.3299" ry="1.32995" fill="white"/>
<ellipse cx="26.0526" cy="748.733" rx="1.3299" ry="1.32995" fill="white"/>
<ellipse cx="26.0526" cy="756.712" rx="1.3299" ry="1.32995" fill="white"/>
<ellipse cx="26.0526" cy="764.692" rx="1.3299" ry="1.32995" fill="white"/>
<ellipse cx="26.0526" cy="772.672" rx="1.3299" ry="1.32995" fill="white"/>
<ellipse cx="34.0311" cy="748.732" rx="1.3299" ry="1.32995" fill="white"/>
<ellipse cx="34.0311" cy="756.712" rx="1.3299" ry="1.32995" fill="white"/>
<ellipse cx="34.0311" cy="764.692" rx="1.3299" ry="1.32995" fill="white"/>
<ellipse cx="34.0311" cy="772.672" rx="1.3299" ry="1.32995" fill="white"/>
<ellipse cx="42.0272" cy="748.735" rx="1.3299" ry="1.32995" fill="white"/>
<ellipse cx="42.0272" cy="756.715" rx="1.3299" ry="1.32995" fill="white"/>
<ellipse cx="42.0272" cy="764.694" rx="1.3299" ry="1.32995" fill="white"/>
<ellipse cx="42.0272" cy="772.673" rx="1.3299" ry="1.32995" fill="white"/>
<ellipse cx="49.9901" cy="748.732" rx="1.3299" ry="1.32995" fill="white"/>
<ellipse cx="49.9901" cy="756.712" rx="1.3299" ry="1.32995" fill="white"/>
<ellipse cx="49.9901" cy="764.692" rx="1.3299" ry="1.32995" fill="white"/>
<ellipse cx="49.9901" cy="772.672" rx="1.3299" ry="1.32995" fill="white"/>
<ellipse cx="57.9686" cy="748.733" rx="1.3299" ry="1.32995" fill="white"/>
<ellipse cx="57.9686" cy="756.712" rx="1.3299" ry="1.32995" fill="white"/>
<ellipse cx="57.9686" cy="764.692" rx="1.3299" ry="1.32995" fill="white"/>
<ellipse cx="57.9686" cy="772.672" rx="1.3299" ry="1.32995" fill="white"/>
<ellipse cx="65.9666" cy="748.735" rx="1.3299" ry="1.32995" fill="white"/>
<ellipse cx="65.9666" cy="756.715" rx="1.3299" ry="1.32995" fill="white"/>
<ellipse cx="65.9666" cy="764.694" rx="1.3299" ry="1.32995" fill="white"/>
<ellipse cx="65.9666" cy="772.673" rx="1.3299" ry="1.32995" fill="white"/>
<ellipse cx="264.33" cy="1823.73" rx="1.3299" ry="1.32995" fill="white"/>
<ellipse cx="264.34" cy="1831.71" rx="1.3299" ry="1.32995" fill="white"/>
<ellipse cx="264.34" cy="1839.69" rx="1.3299" ry="1.32995" fill="white"/>
<ellipse cx="264.34" cy="1847.67" rx="1.3299" ry="1.32995" fill="white"/>
<ellipse cx="272.32" cy="1823.73" rx="1.3299" ry="1.32995" fill="white"/>
<ellipse cx="272.32" cy="1831.71" rx="1.3299" ry="1.32995" fill="white"/>
<ellipse cx="272.32" cy="1839.69" rx="1.3299" ry="1.32995" fill="white"/>
<ellipse cx="272.32" cy="1847.67" rx="1.3299" ry="1.32995" fill="white"/>
<ellipse cx="280.314" cy="1823.74" rx="1.3299" ry="1.32995" fill="white"/>
<ellipse cx="280.314" cy="1831.71" rx="1.3299" ry="1.32995" fill="white"/>
<ellipse cx="280.314" cy="1839.69" rx="1.3299" ry="1.32995" fill="white"/>
<ellipse cx="280.314" cy="1847.67" rx="1.3299" ry="1.32995" fill="white"/>
<ellipse cx="288.279" cy="1823.73" rx="1.3299" ry="1.32995" fill="white"/>
<ellipse cx="288.279" cy="1831.71" rx="1.3299" ry="1.32995" fill="white"/>
<ellipse cx="288.279" cy="1839.69" rx="1.3299" ry="1.32995" fill="white"/>
<ellipse cx="288.279" cy="1847.67" rx="1.3299" ry="1.32995" fill="white"/>
<ellipse cx="296.258" cy="1823.73" rx="1.3299" ry="1.32995" fill="white"/>
<ellipse cx="296.258" cy="1831.71" rx="1.3299" ry="1.32995" fill="white"/>
<ellipse cx="296.258" cy="1839.69" rx="1.3299" ry="1.32995" fill="white"/>
<ellipse cx="296.258" cy="1847.67" rx="1.3299" ry="1.32995" fill="white"/>
<ellipse cx="304.256" cy="1823.74" rx="1.3299" ry="1.32995" fill="white"/>
<ellipse cx="304.256" cy="1831.71" rx="1.3299" ry="1.32995" fill="white"/>
<ellipse cx="304.256" cy="1839.69" rx="1.3299" ry="1.32995" fill="white"/>
<ellipse cx="304.256" cy="1847.67" rx="1.3299" ry="1.32995" fill="white"/>
<ellipse cx="312.217" cy="1823.73" rx="1.3299" ry="1.32995" fill="white"/>
<ellipse cx="312.217" cy="1831.71" rx="1.3299" ry="1.32995" fill="white"/>
<ellipse cx="312.217" cy="1839.69" rx="1.3299" ry="1.32995" fill="white"/>
<ellipse cx="312.217" cy="1847.67" rx="1.3299" ry="1.32995" fill="white"/>
<ellipse cx="320.207" cy="1823.74" rx="1.3299" ry="1.32995" fill="white"/>
<ellipse cx="320.207" cy="1831.71" rx="1.3299" ry="1.32995" fill="white"/>
<ellipse cx="320.207" cy="1839.69" rx="1.3299" ry="1.32995" fill="white"/>
<ellipse cx="320.207" cy="1847.67" rx="1.3299" ry="1.32995" fill="white"/>
<ellipse cx="328.195" cy="1823.74" rx="1.3299" ry="1.32995" fill="white"/>
<ellipse cx="328.195" cy="1831.71" rx="1.3299" ry="1.32995" fill="white"/>
<ellipse cx="328.195" cy="1839.69" rx="1.3299" ry="1.32995" fill="white"/>
<ellipse cx="328.195" cy="1847.67" rx="1.3299" ry="1.32995" fill="white"/>
<ellipse cx="336.154" cy="1823.73" rx="1.3299" ry="1.32995" fill="white"/>
<ellipse cx="336.154" cy="1831.71" rx="1.3299" ry="1.32995" fill="white"/>
<ellipse cx="336.154" cy="1839.69" rx="1.3299" ry="1.32995" fill="white"/>
<ellipse cx="336.154" cy="1847.67" rx="1.3299" ry="1.32995" fill="white"/>
<ellipse cx="344.146" cy="1823.74" rx="1.3299" ry="1.32995" fill="white"/>
<ellipse cx="344.146" cy="1831.71" rx="1.3299" ry="1.32995" fill="white"/>
<ellipse cx="344.146" cy="1839.69" rx="1.3299" ry="1.32995" fill="white"/>
<ellipse cx="344.146" cy="1847.67" rx="1.3299" ry="1.32995" fill="white"/>
<ellipse cx="352.135" cy="1823.74" rx="1.3299" ry="1.32995" fill="white"/>
<ellipse cx="352.135" cy="1831.71" rx="1.3299" ry="1.32995" fill="white"/>
<ellipse cx="352.135" cy="1839.69" rx="1.3299" ry="1.32995" fill="white"/>
<ellipse cx="352.135" cy="1847.67" rx="1.3299" ry="1.32995" fill="white"/>
<ellipse cx="360.094" cy="1823.73" rx="1.3299" ry="1.32995" fill="white"/>
<ellipse cx="360.094" cy="1831.71" rx="1.3299" ry="1.32995" fill="white"/>
<ellipse cx="360.094" cy="1839.69" rx="1.3299" ry="1.32995" fill="white"/>
<ellipse cx="360.094" cy="1847.67" rx="1.3299" ry="1.32995" fill="white"/>
<ellipse cx="368.088" cy="1823.74" rx="1.3299" ry="1.32995" fill="white"/>
<ellipse cx="368.088" cy="1831.71" rx="1.3299" ry="1.32995" fill="white"/>
<ellipse cx="368.088" cy="1839.69" rx="1.3299" ry="1.32995" fill="white"/>
<ellipse cx="368.088" cy="1847.67" rx="1.3299" ry="1.32995" fill="white"/>
<ellipse cx="376.053" cy="1823.73" rx="1.3299" ry="1.32995" fill="white"/>
<ellipse cx="376.053" cy="1831.71" rx="1.3299" ry="1.32995" fill="white"/>
<ellipse cx="376.053" cy="1839.69" rx="1.3299" ry="1.32995" fill="white"/>
<ellipse cx="376.053" cy="1847.67" rx="1.3299" ry="1.32995" fill="white"/>
<ellipse cx="348.599" cy="854.23" rx="1.82923" ry="1.82931" fill="white"/>
<ellipse cx="348.614" cy="865.209" rx="1.82923" ry="1.82931" fill="white"/>
<ellipse cx="348.614" cy="876.184" rx="1.82923" ry="1.82931" fill="white"/>
<ellipse cx="348.614" cy="887.16" rx="1.82923" ry="1.82931" fill="white"/>
<ellipse cx="359.589" cy="854.233" rx="1.82923" ry="1.82931" fill="white"/>
<ellipse cx="359.589" cy="865.209" rx="1.82923" ry="1.82931" fill="white"/>
<ellipse cx="359.589" cy="876.184" rx="1.82923" ry="1.82931" fill="white"/>
<ellipse cx="359.589" cy="887.16" rx="1.82923" ry="1.82931" fill="white"/>
<ellipse cx="370.585" cy="854.237" rx="1.82923" ry="1.82931" fill="white"/>
<ellipse cx="370.585" cy="865.212" rx="1.82923" ry="1.82931" fill="white"/>
<ellipse cx="370.585" cy="876.187" rx="1.82923" ry="1.82931" fill="white"/>
<ellipse cx="370.585" cy="887.163" rx="1.82923" ry="1.82931" fill="white"/>
<ellipse cx="-1.17756" cy="799.548" rx="1.59587" ry="1.59594" fill="white"/>
<ellipse cx="-1.17756" cy="809.123" rx="1.59587" ry="1.59594" fill="white"/>
<ellipse cx="-1.17756" cy="818.698" rx="1.59587" ry="1.59594" fill="white"/>
<ellipse cx="-1.17756" cy="828.273" rx="1.59587" ry="1.59594" fill="white"/>
<ellipse cx="8.37908" cy="799.544" rx="1.59587" ry="1.59594" fill="white"/>
<ellipse cx="8.37908" cy="809.12" rx="1.59587" ry="1.59594" fill="white"/>
<ellipse cx="8.37908" cy="818.696" rx="1.59587" ry="1.59594" fill="white"/>
<ellipse cx="8.37908" cy="828.271" rx="1.59587" ry="1.59594" fill="white"/>
<ellipse cx="17.9552" cy="799.544" rx="1.59587" ry="1.59594" fill="white"/>
<ellipse cx="17.9552" cy="809.12" rx="1.59587" ry="1.59594" fill="white"/>
<ellipse cx="17.9552" cy="818.696" rx="1.59587" ry="1.59594" fill="white"/>
<ellipse cx="17.9552" cy="828.271" rx="1.59587" ry="1.59594" fill="white"/>
<ellipse cx="27.551" cy="799.548" rx="1.59587" ry="1.59594" fill="white"/>
<ellipse cx="27.551" cy="809.123" rx="1.59587" ry="1.59594" fill="white"/>
<ellipse cx="27.551" cy="818.698" rx="1.59587" ry="1.59594" fill="white"/>
<ellipse cx="27.551" cy="828.273" rx="1.59587" ry="1.59594" fill="white"/>
<ellipse cx="37.1056" cy="799.544" rx="1.59587" ry="1.59594" fill="white"/>
<ellipse cx="37.1056" cy="809.12" rx="1.59587" ry="1.59594" fill="white"/>
<ellipse cx="37.1056" cy="818.696" rx="1.59587" ry="1.59594" fill="white"/>
<ellipse cx="37.1056" cy="828.271" rx="1.59587" ry="1.59594" fill="white"/>
<ellipse cx="46.6935" cy="799.548" rx="1.59587" ry="1.59594" fill="white"/>
<ellipse cx="46.6935" cy="809.123" rx="1.59587" ry="1.59594" fill="white"/>
<ellipse cx="46.6935" cy="818.698" rx="1.59587" ry="1.59594" fill="white"/>
<ellipse cx="46.6935" cy="828.273" rx="1.59587" ry="1.59594" fill="white"/>
<ellipse cx="56.2775" cy="799.548" rx="1.59587" ry="1.59594" fill="white"/>
<ellipse cx="56.2775" cy="809.123" rx="1.59587" ry="1.59594" fill="white"/>
<ellipse cx="56.2775" cy="818.698" rx="1.59587" ry="1.59594" fill="white"/>
<ellipse cx="56.2775" cy="828.273" rx="1.59587" ry="1.59594" fill="white"/>
<ellipse cx="65.8302" cy="799.544" rx="1.59587" ry="1.59594" fill="white"/>
<ellipse cx="65.8302" cy="809.12" rx="1.59587" ry="1.59594" fill="white"/>
<ellipse cx="65.8302" cy="818.696" rx="1.59587" ry="1.59594" fill="white"/>
<ellipse cx="65.8302" cy="828.271" rx="1.59587" ry="1.59594" fill="white"/>
<ellipse cx="75.422" cy="799.548" rx="1.59587" ry="1.59594" fill="white"/>
<ellipse cx="75.422" cy="809.123" rx="1.59587" ry="1.59594" fill="white"/>
<ellipse cx="75.422" cy="818.698" rx="1.59587" ry="1.59594" fill="white"/>
<ellipse cx="75.422" cy="828.273" rx="1.59587" ry="1.59594" fill="white"/>
<ellipse cx="85.006" cy="799.548" rx="1.59587" ry="1.59594" fill="white"/>
<ellipse cx="85.006" cy="809.123" rx="1.59587" ry="1.59594" fill="white"/>
<ellipse cx="85.006" cy="818.698" rx="1.59587" ry="1.59594" fill="white"/>
<ellipse cx="85.006" cy="828.273" rx="1.59587" ry="1.59594" fill="white"/>
<ellipse cx="94.5568" cy="799.544" rx="1.59587" ry="1.59594" fill="white"/>
<ellipse cx="94.5568" cy="809.12" rx="1.59587" ry="1.59594" fill="white"/>
<ellipse cx="94.5568" cy="818.696" rx="1.59587" ry="1.59594" fill="white"/>
<ellipse cx="94.5568" cy="828.271" rx="1.59587" ry="1.59594" fill="white"/>
<ellipse cx="104.151" cy="799.548" rx="1.59587" ry="1.59594" fill="white"/>
<ellipse cx="104.151" cy="809.123" rx="1.59587" ry="1.59594" fill="white"/>
<ellipse cx="104.151" cy="818.698" rx="1.59587" ry="1.59594" fill="white"/>
<ellipse cx="104.151" cy="828.273" rx="1.59587" ry="1.59594" fill="white"/>
<ellipse cx="113.707" cy="799.544" rx="1.59587" ry="1.59594" fill="white"/>
<ellipse cx="113.707" cy="809.12" rx="1.59587" ry="1.59594" fill="white"/>
<ellipse cx="113.707" cy="818.696" rx="1.59587" ry="1.59594" fill="white"/>
<ellipse cx="113.707" cy="828.271" rx="1.59587" ry="1.59594" fill="white"/>
<ellipse cx="123.281" cy="799.544" rx="1.59587" ry="1.59594" fill="white"/>
<ellipse cx="123.281" cy="809.12" rx="1.59587" ry="1.59594" fill="white"/>
<ellipse cx="123.281" cy="818.696" rx="1.59587" ry="1.59594" fill="white"/>
<ellipse cx="123.281" cy="828.271" rx="1.59587" ry="1.59594" fill="white"/>
<ellipse cx="132.877" cy="799.548" rx="1.59587" ry="1.59594" fill="white"/>
<ellipse cx="132.877" cy="809.123" rx="1.59587" ry="1.59594" fill="white"/>
<ellipse cx="132.877" cy="818.698" rx="1.59587" ry="1.59594" fill="white"/>
<ellipse cx="132.877" cy="828.273" rx="1.59587" ry="1.59594" fill="white"/>
<ellipse cx="142.434" cy="799.544" rx="1.59587" ry="1.59594" fill="white"/>
<ellipse cx="142.434" cy="809.12" rx="1.59587" ry="1.59594" fill="white"/>
<ellipse cx="142.434" cy="818.696" rx="1.59587" ry="1.59594" fill="white"/>
<ellipse cx="142.434" cy="828.271" rx="1.59587" ry="1.59594" fill="white"/>
<ellipse cx="152.008" cy="799.544" rx="1.59587" ry="1.59594" fill="white"/>
<ellipse cx="152.008" cy="809.12" rx="1.59587" ry="1.59594" fill="white"/>
<ellipse cx="152.008" cy="818.696" rx="1.59587" ry="1.59594" fill="white"/>
<ellipse cx="152.008" cy="828.271" rx="1.59587" ry="1.59594" fill="white"/>
<ellipse cx="161.606" cy="799.548" rx="1.59587" ry="1.59594" fill="white"/>
<ellipse cx="161.606" cy="809.123" rx="1.59587" ry="1.59594" fill="white"/>
<ellipse cx="161.606" cy="818.698" rx="1.59587" ry="1.59594" fill="white"/>
<ellipse cx="161.606" cy="828.273" rx="1.59587" ry="1.59594" fill="white"/>
<ellipse cx="329.641" cy="1874.54" rx="1.59587" ry="1.59594" fill="white"/>
<ellipse cx="329.653" cy="1884.12" rx="1.59587" ry="1.59594" fill="white"/>
<ellipse cx="329.653" cy="1893.7" rx="1.59587" ry="1.59594" fill="white"/>
<ellipse cx="329.653" cy="1903.27" rx="1.59587" ry="1.59594" fill="white"/>
<ellipse cx="339.229" cy="1874.54" rx="1.59587" ry="1.59594" fill="white"/>
<ellipse cx="339.229" cy="1884.12" rx="1.59587" ry="1.59594" fill="white"/>
<ellipse cx="339.229" cy="1893.7" rx="1.59587" ry="1.59594" fill="white"/>
<ellipse cx="339.229" cy="1903.27" rx="1.59587" ry="1.59594" fill="white"/>
<ellipse cx="348.822" cy="1874.55" rx="1.59587" ry="1.59594" fill="white"/>
<ellipse cx="348.822" cy="1884.12" rx="1.59587" ry="1.59594" fill="white"/>
<ellipse cx="348.822" cy="1893.7" rx="1.59587" ry="1.59594" fill="white"/>
<ellipse cx="348.822" cy="1903.27" rx="1.59587" ry="1.59594" fill="white"/>
<ellipse cx="358.379" cy="1874.54" rx="1.59587" ry="1.59594" fill="white"/>
<ellipse cx="358.379" cy="1884.12" rx="1.59587" ry="1.59594" fill="white"/>
<ellipse cx="358.379" cy="1893.7" rx="1.59587" ry="1.59594" fill="white"/>
<ellipse cx="358.379" cy="1903.27" rx="1.59587" ry="1.59594" fill="white"/>
<ellipse cx="367.955" cy="1874.54" rx="1.59587" ry="1.59594" fill="white"/>
<ellipse cx="367.955" cy="1884.12" rx="1.59587" ry="1.59594" fill="white"/>
<ellipse cx="367.955" cy="1893.7" rx="1.59587" ry="1.59594" fill="white"/>
<ellipse cx="367.955" cy="1903.27" rx="1.59587" ry="1.59594" fill="white"/>
<circle cx="195.233" cy="112.633" r="2.23276" fill="white"/>
<circle cx="195.233" cy="126.03" r="2.23276" fill="white"/>
<circle cx="195.233" cy="139.426" r="2.23276" fill="white"/>
<circle cx="195.233" cy="152.823" r="2.23276" fill="white"/>
<circle cx="208.629" cy="112.633" r="2.23276" fill="white"/>
<circle cx="208.629" cy="126.03" r="2.23276" fill="white"/>
<circle cx="208.629" cy="139.426" r="2.23276" fill="white"/>
<circle cx="208.629" cy="152.823" r="2.23276" fill="white"/>
<circle cx="222.026" cy="112.633" r="2.23276" fill="white"/>
<circle cx="222.026" cy="126.03" r="2.23276" fill="white"/>
<circle cx="222.026" cy="139.426" r="2.23276" fill="white"/>
<circle cx="222.026" cy="152.823" r="2.23276" fill="white"/>
<circle cx="235.422" cy="112.633" r="2.23276" fill="white"/>
<circle cx="235.422" cy="126.03" r="2.23276" fill="white"/>
<circle cx="235.422" cy="139.426" r="2.23276" fill="white"/>
<circle cx="235.422" cy="152.823" r="2.23276" fill="white"/>
<circle cx="248.819" cy="112.633" r="2.23276" fill="white"/>
<circle cx="248.819" cy="126.03" r="2.23276" fill="white"/>
<circle cx="248.819" cy="139.426" r="2.23276" fill="white"/>
<circle cx="248.819" cy="152.823" r="2.23276" fill="white"/>
<circle cx="262.215" cy="112.633" r="2.23276" fill="white"/>
<circle cx="262.215" cy="126.03" r="2.23276" fill="white"/>
<circle cx="262.215" cy="139.426" r="2.23276" fill="white"/>
<circle cx="262.215" cy="152.823" r="2.23276" fill="white"/>
<circle cx="275.612" cy="112.633" r="2.23276" fill="white"/>
<circle cx="275.612" cy="126.03" r="2.23276" fill="white"/>
<circle cx="275.612" cy="139.426" r="2.23276" fill="white"/>
<circle cx="275.612" cy="152.823" r="2.23276" fill="white"/>
<circle cx="289.008" cy="112.633" r="2.23276" fill="white"/>
<circle cx="289.008" cy="126.03" r="2.23276" fill="white"/>
<circle cx="289.008" cy="139.426" r="2.23276" fill="white"/>
<circle cx="289.008" cy="152.823" r="2.23276" fill="white"/>
<circle cx="302.405" cy="112.633" r="2.23276" fill="white"/>
<circle cx="302.405" cy="126.03" r="2.23276" fill="white"/>
<circle cx="302.405" cy="139.426" r="2.23276" fill="white"/>
<circle cx="302.405" cy="152.823" r="2.23276" fill="white"/>
<circle cx="315.801" cy="112.633" r="2.23276" fill="white"/>
<circle cx="315.801" cy="126.03" r="2.23276" fill="white"/>
<circle cx="315.801" cy="139.426" r="2.23276" fill="white"/>
<circle cx="315.801" cy="152.823" r="2.23276" fill="white"/>
<circle cx="329.198" cy="112.633" r="2.23276" fill="white"/>
<circle cx="329.198" cy="126.03" r="2.23276" fill="white"/>
<circle cx="329.198" cy="139.426" r="2.23276" fill="white"/>
<circle cx="329.198" cy="152.823" r="2.23276" fill="white"/>
<circle cx="342.594" cy="112.633" r="2.23276" fill="white"/>
<circle cx="342.594" cy="126.03" r="2.23276" fill="white"/>
<circle cx="342.594" cy="139.426" r="2.23276" fill="white"/>
<circle cx="342.594" cy="152.823" r="2.23276" fill="white"/>
<circle cx="355.991" cy="112.633" r="2.23276" fill="white"/>
<circle cx="355.991" cy="126.03" r="2.23276" fill="white"/>
<circle cx="355.991" cy="139.426" r="2.23276" fill="white"/>
<circle cx="355.991" cy="152.823" r="2.23276" fill="white"/>
<circle cx="369.387" cy="112.633" r="2.23276" fill="white"/>
<circle cx="369.387" cy="126.03" r="2.23276" fill="white"/>
<circle cx="369.387" cy="139.426" r="2.23276" fill="white"/>
<circle cx="369.387" cy="152.823" r="2.23276" fill="white"/>
<circle cx="162.744" cy="910.032" r="2.74436" fill="white"/>
<circle cx="162.744" cy="926.498" r="2.74436" fill="white"/>
<circle cx="162.744" cy="942.965" r="2.74436" fill="white"/>
<circle cx="162.744" cy="959.43" r="2.74436" fill="white"/>
<circle cx="179.211" cy="910.032" r="2.74436" fill="white"/>
<circle cx="179.211" cy="926.498" r="2.74436" fill="white"/>
<circle cx="179.211" cy="942.965" r="2.74436" fill="white"/>
<circle cx="179.211" cy="959.43" r="2.74436" fill="white"/>
<circle cx="195.676" cy="910.032" r="2.74436" fill="white"/>
<circle cx="195.676" cy="926.498" r="2.74436" fill="white"/>
<circle cx="195.676" cy="942.965" r="2.74436" fill="white"/>
<circle cx="195.676" cy="959.43" r="2.74436" fill="white"/>
<circle cx="212.143" cy="910.032" r="2.74436" fill="white"/>
<circle cx="212.143" cy="926.498" r="2.74436" fill="white"/>
<circle cx="212.143" cy="942.965" r="2.74436" fill="white"/>
<circle cx="212.143" cy="959.43" r="2.74436" fill="white"/>
<circle cx="228.61" cy="910.032" r="2.74436" fill="white"/>
<circle cx="228.61" cy="926.498" r="2.74436" fill="white"/>
<circle cx="228.61" cy="942.965" r="2.74436" fill="white"/>
<circle cx="228.61" cy="959.43" r="2.74436" fill="white"/>
<circle cx="245.074" cy="910.032" r="2.74436" fill="white"/>
<circle cx="245.074" cy="926.498" r="2.74436" fill="white"/>
<circle cx="245.074" cy="942.965" r="2.74436" fill="white"/>
<circle cx="245.074" cy="959.43" r="2.74436" fill="white"/>
<circle cx="261.541" cy="910.032" r="2.74436" fill="white"/>
<circle cx="261.541" cy="926.498" r="2.74436" fill="white"/>
<circle cx="261.541" cy="942.965" r="2.74436" fill="white"/>
<circle cx="261.541" cy="959.43" r="2.74436" fill="white"/>
<circle cx="278.008" cy="910.032" r="2.74436" fill="white"/>
<circle cx="278.008" cy="926.498" r="2.74436" fill="white"/>
<circle cx="278.008" cy="942.965" r="2.74436" fill="white"/>
<circle cx="278.008" cy="959.43" r="2.74436" fill="white"/>
<circle cx="294.473" cy="910.032" r="2.74436" fill="white"/>
<circle cx="294.473" cy="926.498" r="2.74436" fill="white"/>
<circle cx="294.473" cy="942.965" r="2.74436" fill="white"/>
<circle cx="294.473" cy="959.43" r="2.74436" fill="white"/>
<circle cx="310.94" cy="910.032" r="2.74436" fill="white"/>
<circle cx="310.94" cy="926.498" r="2.74436" fill="white"/>
<circle cx="310.94" cy="942.965" r="2.74436" fill="white"/>
<circle cx="310.94" cy="959.43" r="2.74436" fill="white"/>
<circle cx="327.406" cy="910.032" r="2.74436" fill="white"/>
<circle cx="327.406" cy="926.498" r="2.74436" fill="white"/>
<circle cx="327.406" cy="942.965" r="2.74436" fill="white"/>
<circle cx="327.406" cy="959.43" r="2.74436" fill="white"/>
<circle cx="343.871" cy="910.032" r="2.74436" fill="white"/>
<circle cx="343.871" cy="926.498" r="2.74436" fill="white"/>
<circle cx="343.871" cy="942.965" r="2.74436" fill="white"/>
<circle cx="343.871" cy="959.43" r="2.74436" fill="white"/>
<circle cx="360.338" cy="910.032" r="2.74436" fill="white"/>
<circle cx="360.338" cy="926.498" r="2.74436" fill="white"/>
<circle cx="360.338" cy="942.965" r="2.74436" fill="white"/>
<circle cx="360.338" cy="959.43" r="2.74436" fill="white"/>
<circle cx="376.805" cy="910.032" r="2.74436" fill="white"/>
<circle cx="376.805" cy="926.498" r="2.74436" fill="white"/>
<circle cx="376.805" cy="942.965" r="2.74436" fill="white"/>
<circle cx="376.805" cy="959.43" r="2.74436" fill="white"/>
<ellipse cx="6.51478" cy="1647.23" rx="1.82923" ry="1.82931" fill="white"/>
<ellipse cx="6.51478" cy="1658.21" rx="1.82923" ry="1.82931" fill="white"/>
<ellipse cx="6.51478" cy="1669.18" rx="1.82923" ry="1.82931" fill="white"/>
<ellipse cx="6.51478" cy="1680.16" rx="1.82923" ry="1.82931" fill="white"/>
<ellipse cx="17.5148" cy="1647.24" rx="1.82923" ry="1.82931" fill="white"/>
<ellipse cx="17.5148" cy="1658.21" rx="1.82923" ry="1.82931" fill="white"/>
<ellipse cx="17.5148" cy="1669.19" rx="1.82923" ry="1.82931" fill="white"/>
<ellipse cx="17.5148" cy="1680.16" rx="1.82923" ry="1.82931" fill="white"/>
<ellipse cx="28.466" cy="1647.23" rx="1.82923" ry="1.82931" fill="white"/>
<ellipse cx="28.466" cy="1658.21" rx="1.82923" ry="1.82931" fill="white"/>
<ellipse cx="28.466" cy="1669.18" rx="1.82923" ry="1.82931" fill="white"/>
<ellipse cx="28.466" cy="1680.16" rx="1.82923" ry="1.82931" fill="white"/>
<ellipse cx="39.4562" cy="1647.24" rx="1.82923" ry="1.82931" fill="white"/>
<ellipse cx="39.4562" cy="1658.21" rx="1.82923" ry="1.82931" fill="white"/>
<ellipse cx="39.4562" cy="1669.19" rx="1.82923" ry="1.82931" fill="white"/>
<ellipse cx="39.4562" cy="1680.16" rx="1.82923" ry="1.82931" fill="white"/>
<ellipse cx="50.4425" cy="1647.24" rx="1.82923" ry="1.82931" fill="white"/>
<ellipse cx="50.4425" cy="1658.21" rx="1.82923" ry="1.82931" fill="white"/>
<ellipse cx="50.4425" cy="1669.19" rx="1.82923" ry="1.82931" fill="white"/>
<ellipse cx="50.4425" cy="1680.16" rx="1.82923" ry="1.82931" fill="white"/>
<ellipse cx="61.3917" cy="1647.23" rx="1.82923" ry="1.82931" fill="white"/>
<ellipse cx="61.3917" cy="1658.21" rx="1.82923" ry="1.82931" fill="white"/>
<ellipse cx="61.3917" cy="1669.18" rx="1.82923" ry="1.82931" fill="white"/>
<ellipse cx="61.3917" cy="1680.16" rx="1.82923" ry="1.82931" fill="white"/>
<ellipse cx="72.3859" cy="1647.24" rx="1.82923" ry="1.82931" fill="white"/>
<ellipse cx="72.3859" cy="1658.21" rx="1.82923" ry="1.82931" fill="white"/>
<ellipse cx="72.3859" cy="1669.19" rx="1.82923" ry="1.82931" fill="white"/>
<ellipse cx="72.3859" cy="1680.16" rx="1.82923" ry="1.82931" fill="white"/>
<ellipse cx="83.3702" cy="1647.24" rx="1.82923" ry="1.82931" fill="white"/>
<ellipse cx="83.3702" cy="1658.21" rx="1.82923" ry="1.82931" fill="white"/>
<ellipse cx="83.3702" cy="1669.19" rx="1.82923" ry="1.82931" fill="white"/>
<ellipse cx="83.3702" cy="1680.16" rx="1.82923" ry="1.82931" fill="white"/>
<ellipse cx="94.3195" cy="1647.23" rx="1.82923" ry="1.82931" fill="white"/>
<ellipse cx="94.3195" cy="1658.21" rx="1.82923" ry="1.82931" fill="white"/>
<ellipse cx="94.3195" cy="1669.18" rx="1.82923" ry="1.82931" fill="white"/>
<ellipse cx="94.3195" cy="1680.16" rx="1.82923" ry="1.82931" fill="white"/>
<ellipse cx="105.314" cy="1647.24" rx="1.82923" ry="1.82931" fill="white"/>
<ellipse cx="105.314" cy="1658.21" rx="1.82923" ry="1.82931" fill="white"/>
<ellipse cx="105.314" cy="1669.19" rx="1.82923" ry="1.82931" fill="white"/>
<ellipse cx="105.314" cy="1680.16" rx="1.82923" ry="1.82931" fill="white"/>
<ellipse cx="116.269" cy="1647.23" rx="1.82923" ry="1.82931" fill="white"/>
<ellipse cx="116.269" cy="1658.21" rx="1.82923" ry="1.82931" fill="white"/>
<ellipse cx="116.269" cy="1669.18" rx="1.82923" ry="1.82931" fill="white"/>
<ellipse cx="116.269" cy="1680.16" rx="1.82923" ry="1.82931" fill="white"/>
<ellipse cx="127.243" cy="1647.23" rx="1.82923" ry="1.82931" fill="white"/>
<ellipse cx="127.243" cy="1658.21" rx="1.82923" ry="1.82931" fill="white"/>
<ellipse cx="127.243" cy="1669.18" rx="1.82923" ry="1.82931" fill="white"/>
<ellipse cx="127.243" cy="1680.16" rx="1.82923" ry="1.82931" fill="white"/>
<ellipse cx="138.243" cy="1647.24" rx="1.82923" ry="1.82931" fill="white"/>
<ellipse cx="138.243" cy="1658.21" rx="1.82923" ry="1.82931" fill="white"/>
<ellipse cx="138.243" cy="1669.19" rx="1.82923" ry="1.82931" fill="white"/>
<ellipse cx="138.243" cy="1680.16" rx="1.82923" ry="1.82931" fill="white"/>
<ellipse cx="149.196" cy="1647.23" rx="1.82923" ry="1.82931" fill="white"/>
<ellipse cx="149.196" cy="1658.21" rx="1.82923" ry="1.82931" fill="white"/>
<ellipse cx="149.196" cy="1669.18" rx="1.82923" ry="1.82931" fill="white"/>
<ellipse cx="149.196" cy="1680.16" rx="1.82923" ry="1.82931" fill="white"/>
<ellipse cx="160.171" cy="1647.23" rx="1.82923" ry="1.82931" fill="white"/>
<ellipse cx="160.171" cy="1658.21" rx="1.82923" ry="1.82931" fill="white"/>
<ellipse cx="160.171" cy="1669.18" rx="1.82923" ry="1.82931" fill="white"/>
<ellipse cx="160.171" cy="1680.16" rx="1.82923" ry="1.82931" fill="white"/>
<ellipse cx="171.171" cy="1647.24" rx="1.82923" ry="1.82931" fill="white"/>
<ellipse cx="171.171" cy="1658.21" rx="1.82923" ry="1.82931" fill="white"/>
<ellipse cx="171.171" cy="1669.19" rx="1.82923" ry="1.82931" fill="white"/>
<ellipse cx="171.171" cy="1680.16" rx="1.82923" ry="1.82931" fill="white"/>
<circle cx="7.87132" cy="1703.03" r="2.74436" fill="white"/>
<circle cx="7.87132" cy="1719.5" r="2.74436" fill="white"/>
<circle cx="7.87132" cy="1735.96" r="2.74436" fill="white"/>
<circle cx="7.87132" cy="1752.43" r="2.74436" fill="white"/>
<circle cx="24.3381" cy="1703.03" r="2.74436" fill="white"/>
<circle cx="24.3381" cy="1719.5" r="2.74436" fill="white"/>
<circle cx="24.3381" cy="1735.96" r="2.74436" fill="white"/>
<circle cx="24.3381" cy="1752.43" r="2.74436" fill="white"/>
<circle cx="40.8049" cy="1703.03" r="2.74436" fill="white"/>
<circle cx="40.8049" cy="1719.5" r="2.74436" fill="white"/>
<circle cx="40.8049" cy="1735.96" r="2.74436" fill="white"/>
<circle cx="40.8049" cy="1752.43" r="2.74436" fill="white"/>
<circle cx="57.2698" cy="1703.03" r="2.74436" fill="white"/>
<circle cx="57.2698" cy="1719.5" r="2.74436" fill="white"/>
<circle cx="57.2698" cy="1735.96" r="2.74436" fill="white"/>
<circle cx="57.2698" cy="1752.43" r="2.74436" fill="white"/>
<circle cx="73.7365" cy="1703.03" r="2.74436" fill="white"/>
<circle cx="73.7365" cy="1719.5" r="2.74436" fill="white"/>
<circle cx="73.7365" cy="1735.96" r="2.74436" fill="white"/>
<circle cx="73.7365" cy="1752.43" r="2.74436" fill="white"/>
<circle cx="90.2033" cy="1703.03" r="2.74436" fill="white"/>
<circle cx="90.2033" cy="1719.5" r="2.74436" fill="white"/>
<circle cx="90.2033" cy="1735.96" r="2.74436" fill="white"/>
<circle cx="90.2033" cy="1752.43" r="2.74436" fill="white"/>
<circle cx="106.67" cy="1703.03" r="2.74436" fill="white"/>
<circle cx="106.67" cy="1719.5" r="2.74436" fill="white"/>
<circle cx="106.67" cy="1735.96" r="2.74436" fill="white"/>
<circle cx="106.67" cy="1752.43" r="2.74436" fill="white"/>
<circle cx="123.135" cy="1703.03" r="2.74436" fill="white"/>
<circle cx="123.135" cy="1719.5" r="2.74436" fill="white"/>
<circle cx="123.135" cy="1735.96" r="2.74436" fill="white"/>
<circle cx="123.135" cy="1752.43" r="2.74436" fill="white"/>
<circle cx="139.602" cy="1703.03" r="2.74436" fill="white"/>
<circle cx="139.602" cy="1719.5" r="2.74436" fill="white"/>
<circle cx="139.602" cy="1735.96" r="2.74436" fill="white"/>
<circle cx="139.602" cy="1752.43" r="2.74436" fill="white"/>
</g>
<defs>
<clipPath id="clip0_176_7276">
<rect width="375" height="2132" fill="white" transform="translate(0 0.400391)"/>
</clipPath>
</defs>
</svg>
