<svg width="1440" height="1011" viewBox="0 0 1440 1011" fill="none" xmlns="http://www.w3.org/2000/svg">
<g clip-path="url(#clip0_170_6575)">
<rect y="0.400391" width="1446" height="1010" fill="#FFEDF0"/>
<circle cx="58" cy="95.4004" r="3" fill="white"/>
<circle cx="58" cy="113.4" r="3" fill="white"/>
<circle cx="58" cy="131.4" r="3" fill="white"/>
<circle cx="58" cy="149.4" r="3" fill="white"/>
<circle cx="76" cy="95.4004" r="3" fill="white"/>
<circle cx="76" cy="113.4" r="3" fill="white"/>
<circle cx="76" cy="131.4" r="3" fill="white"/>
<circle cx="76" cy="149.4" r="3" fill="white"/>
<circle cx="94" cy="95.4004" r="3" fill="white"/>
<circle cx="94" cy="113.4" r="3" fill="white"/>
<circle cx="94" cy="131.4" r="3" fill="white"/>
<circle cx="94" cy="149.4" r="3" fill="white"/>
<circle cx="112" cy="95.4004" r="3" fill="white"/>
<circle cx="112" cy="113.4" r="3" fill="white"/>
<circle cx="112" cy="131.4" r="3" fill="white"/>
<circle cx="112" cy="149.4" r="3" fill="white"/>
<circle cx="130" cy="95.4004" r="3" fill="white"/>
<circle cx="130" cy="113.4" r="3" fill="white"/>
<circle cx="130" cy="131.4" r="3" fill="white"/>
<circle cx="130" cy="149.4" r="3" fill="white"/>
<circle cx="148" cy="95.4004" r="3" fill="white"/>
<circle cx="148" cy="113.4" r="3" fill="white"/>
<circle cx="148" cy="131.4" r="3" fill="white"/>
<circle cx="148" cy="149.4" r="3" fill="white"/>
<circle cx="166" cy="95.4004" r="3" fill="white"/>
<circle cx="166" cy="113.4" r="3" fill="white"/>
<circle cx="166" cy="131.4" r="3" fill="white"/>
<circle cx="166" cy="149.4" r="3" fill="white"/>
<circle cx="184" cy="95.4004" r="3" fill="white"/>
<circle cx="184" cy="113.4" r="3" fill="white"/>
<circle cx="184" cy="131.4" r="3" fill="white"/>
<circle cx="184" cy="149.4" r="3" fill="white"/>
<circle cx="202" cy="95.4004" r="3" fill="white"/>
<circle cx="202" cy="113.4" r="3" fill="white"/>
<circle cx="202" cy="131.4" r="3" fill="white"/>
<circle cx="202" cy="149.4" r="3" fill="white"/>
<circle cx="220" cy="95.4004" r="3" fill="white"/>
<circle cx="220" cy="113.4" r="3" fill="white"/>
<circle cx="220" cy="131.4" r="3" fill="white"/>
<circle cx="220" cy="149.4" r="3" fill="white"/>
<circle cx="238" cy="95.4004" r="3" fill="white"/>
<circle cx="238" cy="113.4" r="3" fill="white"/>
<circle cx="238" cy="131.4" r="3" fill="white"/>
<circle cx="238" cy="149.4" r="3" fill="white"/>
<circle cx="256" cy="95.4004" r="3" fill="white"/>
<circle cx="256" cy="113.4" r="3" fill="white"/>
<circle cx="256" cy="131.4" r="3" fill="white"/>
<circle cx="256" cy="149.4" r="3" fill="white"/>
<circle cx="274" cy="95.4004" r="3" fill="white"/>
<circle cx="274" cy="113.4" r="3" fill="white"/>
<circle cx="274" cy="131.4" r="3" fill="white"/>
<circle cx="274" cy="149.4" r="3" fill="white"/>
<circle cx="292" cy="95.4004" r="3" fill="white"/>
<circle cx="292" cy="113.4" r="3" fill="white"/>
<circle cx="292" cy="131.4" r="3" fill="white"/>
<circle cx="292" cy="149.4" r="3" fill="white"/>
<circle cx="310" cy="95.4004" r="3" fill="white"/>
<circle cx="310" cy="113.4" r="3" fill="white"/>
<circle cx="310" cy="131.4" r="3" fill="white"/>
<circle cx="310" cy="149.4" r="3" fill="white"/>
<circle cx="328" cy="95.4004" r="3" fill="white"/>
<circle cx="328" cy="113.4" r="3" fill="white"/>
<circle cx="328" cy="131.4" r="3" fill="white"/>
<circle cx="328" cy="149.4" r="3" fill="white"/>
<circle cx="346" cy="95.4004" r="3" fill="white"/>
<circle cx="346" cy="113.4" r="3" fill="white"/>
<circle cx="346" cy="131.4" r="3" fill="white"/>
<circle cx="346" cy="149.4" r="3" fill="white"/>
<circle cx="364" cy="95.4004" r="3" fill="white"/>
<circle cx="364" cy="113.4" r="3" fill="white"/>
<circle cx="364" cy="131.4" r="3" fill="white"/>
<circle cx="364" cy="149.4" r="3" fill="white"/>
<circle cx="382" cy="95.4004" r="3" fill="white"/>
<circle cx="382" cy="113.4" r="3" fill="white"/>
<circle cx="382" cy="131.4" r="3" fill="white"/>
<circle cx="382" cy="149.4" r="3" fill="white"/>
<circle cx="400" cy="95.4004" r="3" fill="white"/>
<circle cx="400" cy="113.4" r="3" fill="white"/>
<circle cx="400" cy="131.4" r="3" fill="white"/>
<circle cx="400" cy="149.4" r="3" fill="white"/>
<ellipse cx="8.04213" cy="763.809" rx="2.39955" ry="2.39965" fill="white"/>
<ellipse cx="8.04213" cy="778.206" rx="2.39955" ry="2.39965" fill="white"/>
<ellipse cx="8.04213" cy="792.604" rx="2.39955" ry="2.39965" fill="white"/>
<ellipse cx="8.04213" cy="807.001" rx="2.39955" ry="2.39965" fill="white"/>
<ellipse cx="22.4113" cy="763.804" rx="2.39955" ry="2.39965" fill="white"/>
<ellipse cx="22.4113" cy="778.202" rx="2.39955" ry="2.39965" fill="white"/>
<ellipse cx="22.4113" cy="792.6" rx="2.39955" ry="2.39965" fill="white"/>
<ellipse cx="22.4113" cy="806.998" rx="2.39955" ry="2.39965" fill="white"/>
<ellipse cx="36.8078" cy="763.804" rx="2.39955" ry="2.39965" fill="white"/>
<ellipse cx="36.8078" cy="778.202" rx="2.39955" ry="2.39965" fill="white"/>
<ellipse cx="36.8078" cy="792.6" rx="2.39955" ry="2.39965" fill="white"/>
<ellipse cx="36.8078" cy="806.998" rx="2.39955" ry="2.39965" fill="white"/>
<ellipse cx="51.2374" cy="763.809" rx="2.39955" ry="2.39965" fill="white"/>
<ellipse cx="51.2374" cy="778.206" rx="2.39955" ry="2.39965" fill="white"/>
<ellipse cx="51.2374" cy="792.604" rx="2.39955" ry="2.39965" fill="white"/>
<ellipse cx="51.2374" cy="807.001" rx="2.39955" ry="2.39965" fill="white"/>
<ellipse cx="65.6046" cy="763.804" rx="2.39955" ry="2.39965" fill="white"/>
<ellipse cx="65.6046" cy="778.202" rx="2.39955" ry="2.39965" fill="white"/>
<ellipse cx="65.6046" cy="792.6" rx="2.39955" ry="2.39965" fill="white"/>
<ellipse cx="65.6046" cy="806.998" rx="2.39955" ry="2.39965" fill="white"/>
<ellipse cx="80.0206" cy="763.809" rx="2.39955" ry="2.39965" fill="white"/>
<ellipse cx="80.0206" cy="778.206" rx="2.39955" ry="2.39965" fill="white"/>
<ellipse cx="80.0206" cy="792.604" rx="2.39955" ry="2.39965" fill="white"/>
<ellipse cx="80.0206" cy="807.001" rx="2.39955" ry="2.39965" fill="white"/>
<ellipse cx="94.4328" cy="763.809" rx="2.39955" ry="2.39965" fill="white"/>
<ellipse cx="94.4328" cy="778.206" rx="2.39955" ry="2.39965" fill="white"/>
<ellipse cx="94.4328" cy="792.604" rx="2.39955" ry="2.39965" fill="white"/>
<ellipse cx="94.4328" cy="807.001" rx="2.39955" ry="2.39965" fill="white"/>
<ellipse cx="108.796" cy="763.804" rx="2.39955" ry="2.39965" fill="white"/>
<ellipse cx="108.796" cy="778.202" rx="2.39955" ry="2.39965" fill="white"/>
<ellipse cx="108.796" cy="792.6" rx="2.39955" ry="2.39965" fill="white"/>
<ellipse cx="108.796" cy="806.998" rx="2.39955" ry="2.39965" fill="white"/>
<ellipse cx="123.216" cy="763.809" rx="2.39955" ry="2.39965" fill="white"/>
<ellipse cx="123.216" cy="778.206" rx="2.39955" ry="2.39965" fill="white"/>
<ellipse cx="123.216" cy="792.604" rx="2.39955" ry="2.39965" fill="white"/>
<ellipse cx="123.216" cy="807.001" rx="2.39955" ry="2.39965" fill="white"/>
<ellipse cx="137.626" cy="763.809" rx="2.39955" ry="2.39965" fill="white"/>
<ellipse cx="137.626" cy="778.206" rx="2.39955" ry="2.39965" fill="white"/>
<ellipse cx="137.626" cy="792.604" rx="2.39955" ry="2.39965" fill="white"/>
<ellipse cx="137.626" cy="807.001" rx="2.39955" ry="2.39965" fill="white"/>
<ellipse cx="151.987" cy="763.804" rx="2.39955" ry="2.39965" fill="white"/>
<ellipse cx="151.987" cy="778.202" rx="2.39955" ry="2.39965" fill="white"/>
<ellipse cx="151.987" cy="792.6" rx="2.39955" ry="2.39965" fill="white"/>
<ellipse cx="151.987" cy="806.998" rx="2.39955" ry="2.39965" fill="white"/>
<ellipse cx="166.411" cy="763.809" rx="2.39955" ry="2.39965" fill="white"/>
<ellipse cx="166.411" cy="778.206" rx="2.39955" ry="2.39965" fill="white"/>
<ellipse cx="166.411" cy="792.604" rx="2.39955" ry="2.39965" fill="white"/>
<ellipse cx="166.411" cy="807.001" rx="2.39955" ry="2.39965" fill="white"/>
<ellipse cx="180.782" cy="763.804" rx="2.39955" ry="2.39965" fill="white"/>
<ellipse cx="180.782" cy="778.202" rx="2.39955" ry="2.39965" fill="white"/>
<ellipse cx="180.782" cy="792.6" rx="2.39955" ry="2.39965" fill="white"/>
<ellipse cx="180.782" cy="806.998" rx="2.39955" ry="2.39965" fill="white"/>
<ellipse cx="195.179" cy="763.804" rx="2.39955" ry="2.39965" fill="white"/>
<ellipse cx="195.179" cy="778.202" rx="2.39955" ry="2.39965" fill="white"/>
<ellipse cx="195.179" cy="792.6" rx="2.39955" ry="2.39965" fill="white"/>
<ellipse cx="195.179" cy="806.998" rx="2.39955" ry="2.39965" fill="white"/>
<ellipse cx="209.607" cy="763.809" rx="2.39955" ry="2.39965" fill="white"/>
<ellipse cx="209.607" cy="778.206" rx="2.39955" ry="2.39965" fill="white"/>
<ellipse cx="209.607" cy="792.604" rx="2.39955" ry="2.39965" fill="white"/>
<ellipse cx="209.607" cy="807.001" rx="2.39955" ry="2.39965" fill="white"/>
<ellipse cx="223.974" cy="763.804" rx="2.39955" ry="2.39965" fill="white"/>
<ellipse cx="223.974" cy="778.202" rx="2.39955" ry="2.39965" fill="white"/>
<ellipse cx="223.974" cy="792.6" rx="2.39955" ry="2.39965" fill="white"/>
<ellipse cx="223.974" cy="806.998" rx="2.39955" ry="2.39965" fill="white"/>
<ellipse cx="238.37" cy="763.804" rx="2.39955" ry="2.39965" fill="white"/>
<ellipse cx="238.37" cy="778.202" rx="2.39955" ry="2.39965" fill="white"/>
<ellipse cx="238.37" cy="792.6" rx="2.39955" ry="2.39965" fill="white"/>
<ellipse cx="238.37" cy="806.998" rx="2.39955" ry="2.39965" fill="white"/>
<ellipse cx="252.802" cy="763.809" rx="2.39955" ry="2.39965" fill="white"/>
<ellipse cx="252.802" cy="778.206" rx="2.39955" ry="2.39965" fill="white"/>
<ellipse cx="252.802" cy="792.604" rx="2.39955" ry="2.39965" fill="white"/>
<ellipse cx="252.802" cy="807.001" rx="2.39955" ry="2.39965" fill="white"/>
<ellipse cx="1142.4" cy="494.8" rx="2.39955" ry="2.39965" fill="white"/>
<ellipse cx="1142.42" cy="509.202" rx="2.39955" ry="2.39965" fill="white"/>
<ellipse cx="1142.42" cy="523.6" rx="2.39955" ry="2.39965" fill="white"/>
<ellipse cx="1142.42" cy="537.998" rx="2.39955" ry="2.39965" fill="white"/>
<ellipse cx="1156.82" cy="494.804" rx="2.39955" ry="2.39965" fill="white"/>
<ellipse cx="1156.82" cy="509.202" rx="2.39955" ry="2.39965" fill="white"/>
<ellipse cx="1156.82" cy="523.6" rx="2.39955" ry="2.39965" fill="white"/>
<ellipse cx="1156.82" cy="537.998" rx="2.39955" ry="2.39965" fill="white"/>
<ellipse cx="1171.24" cy="494.809" rx="2.39955" ry="2.39965" fill="white"/>
<ellipse cx="1171.24" cy="509.206" rx="2.39955" ry="2.39965" fill="white"/>
<ellipse cx="1171.24" cy="523.604" rx="2.39955" ry="2.39965" fill="white"/>
<ellipse cx="1171.24" cy="538.001" rx="2.39955" ry="2.39965" fill="white"/>
<ellipse cx="1185.61" cy="494.804" rx="2.39955" ry="2.39965" fill="white"/>
<ellipse cx="1185.61" cy="509.202" rx="2.39955" ry="2.39965" fill="white"/>
<ellipse cx="1185.61" cy="523.6" rx="2.39955" ry="2.39965" fill="white"/>
<ellipse cx="1185.61" cy="537.998" rx="2.39955" ry="2.39965" fill="white"/>
<ellipse cx="1200.01" cy="494.804" rx="2.39955" ry="2.39965" fill="white"/>
<ellipse cx="1200.01" cy="509.202" rx="2.39955" ry="2.39965" fill="white"/>
<ellipse cx="1200.01" cy="523.6" rx="2.39955" ry="2.39965" fill="white"/>
<ellipse cx="1200.01" cy="537.998" rx="2.39955" ry="2.39965" fill="white"/>
<ellipse cx="1214.44" cy="494.809" rx="2.39955" ry="2.39965" fill="white"/>
<ellipse cx="1214.44" cy="509.206" rx="2.39955" ry="2.39965" fill="white"/>
<ellipse cx="1214.44" cy="523.604" rx="2.39955" ry="2.39965" fill="white"/>
<ellipse cx="1214.44" cy="538.001" rx="2.39955" ry="2.39965" fill="white"/>
<ellipse cx="1228.8" cy="494.804" rx="2.39955" ry="2.39965" fill="white"/>
<ellipse cx="1228.8" cy="509.202" rx="2.39955" ry="2.39965" fill="white"/>
<ellipse cx="1228.8" cy="523.6" rx="2.39955" ry="2.39965" fill="white"/>
<ellipse cx="1228.8" cy="537.998" rx="2.39955" ry="2.39965" fill="white"/>
<ellipse cx="1243.22" cy="494.809" rx="2.39955" ry="2.39965" fill="white"/>
<ellipse cx="1243.22" cy="509.206" rx="2.39955" ry="2.39965" fill="white"/>
<ellipse cx="1243.22" cy="523.604" rx="2.39955" ry="2.39965" fill="white"/>
<ellipse cx="1243.22" cy="538.001" rx="2.39955" ry="2.39965" fill="white"/>
<ellipse cx="1257.63" cy="494.809" rx="2.39955" ry="2.39965" fill="white"/>
<ellipse cx="1257.63" cy="509.206" rx="2.39955" ry="2.39965" fill="white"/>
<ellipse cx="1257.63" cy="523.604" rx="2.39955" ry="2.39965" fill="white"/>
<ellipse cx="1257.63" cy="538.001" rx="2.39955" ry="2.39965" fill="white"/>
<ellipse cx="1272" cy="494.804" rx="2.39955" ry="2.39965" fill="white"/>
<ellipse cx="1272" cy="509.202" rx="2.39955" ry="2.39965" fill="white"/>
<ellipse cx="1272" cy="523.6" rx="2.39955" ry="2.39965" fill="white"/>
<ellipse cx="1272" cy="537.998" rx="2.39955" ry="2.39965" fill="white"/>
<ellipse cx="1286.42" cy="494.809" rx="2.39955" ry="2.39965" fill="white"/>
<ellipse cx="1286.42" cy="509.206" rx="2.39955" ry="2.39965" fill="white"/>
<ellipse cx="1286.42" cy="523.604" rx="2.39955" ry="2.39965" fill="white"/>
<ellipse cx="1286.42" cy="538.001" rx="2.39955" ry="2.39965" fill="white"/>
<ellipse cx="1300.83" cy="494.809" rx="2.39955" ry="2.39965" fill="white"/>
<ellipse cx="1300.83" cy="509.206" rx="2.39955" ry="2.39965" fill="white"/>
<ellipse cx="1300.83" cy="523.604" rx="2.39955" ry="2.39965" fill="white"/>
<ellipse cx="1300.83" cy="538.001" rx="2.39955" ry="2.39965" fill="white"/>
<ellipse cx="1315.19" cy="494.804" rx="2.39955" ry="2.39965" fill="white"/>
<ellipse cx="1315.19" cy="509.202" rx="2.39955" ry="2.39965" fill="white"/>
<ellipse cx="1315.19" cy="523.6" rx="2.39955" ry="2.39965" fill="white"/>
<ellipse cx="1315.19" cy="537.998" rx="2.39955" ry="2.39965" fill="white"/>
<ellipse cx="1329.61" cy="494.809" rx="2.39955" ry="2.39965" fill="white"/>
<ellipse cx="1329.61" cy="509.206" rx="2.39955" ry="2.39965" fill="white"/>
<ellipse cx="1329.61" cy="523.604" rx="2.39955" ry="2.39965" fill="white"/>
<ellipse cx="1329.61" cy="538.001" rx="2.39955" ry="2.39965" fill="white"/>
<ellipse cx="1343.98" cy="494.804" rx="2.39955" ry="2.39965" fill="white"/>
<ellipse cx="1343.98" cy="509.202" rx="2.39955" ry="2.39965" fill="white"/>
<ellipse cx="1343.98" cy="523.6" rx="2.39955" ry="2.39965" fill="white"/>
<ellipse cx="1343.98" cy="537.998" rx="2.39955" ry="2.39965" fill="white"/>
<ellipse cx="1358.38" cy="494.804" rx="2.39955" ry="2.39965" fill="white"/>
<ellipse cx="1358.38" cy="509.202" rx="2.39955" ry="2.39965" fill="white"/>
<ellipse cx="1358.38" cy="523.6" rx="2.39955" ry="2.39965" fill="white"/>
<ellipse cx="1358.38" cy="537.998" rx="2.39955" ry="2.39965" fill="white"/>
<ellipse cx="1372.81" cy="494.809" rx="2.39955" ry="2.39965" fill="white"/>
<ellipse cx="1372.81" cy="509.206" rx="2.39955" ry="2.39965" fill="white"/>
<ellipse cx="1372.81" cy="523.604" rx="2.39955" ry="2.39965" fill="white"/>
<ellipse cx="1372.81" cy="538.001" rx="2.39955" ry="2.39965" fill="white"/>
<ellipse cx="1387.17" cy="494.804" rx="2.39955" ry="2.39965" fill="white"/>
<ellipse cx="1387.17" cy="509.202" rx="2.39955" ry="2.39965" fill="white"/>
<ellipse cx="1387.17" cy="523.6" rx="2.39955" ry="2.39965" fill="white"/>
<ellipse cx="1387.17" cy="537.998" rx="2.39955" ry="2.39965" fill="white"/>
<ellipse cx="1401.57" cy="494.804" rx="2.39955" ry="2.39965" fill="white"/>
<ellipse cx="1401.57" cy="509.202" rx="2.39955" ry="2.39965" fill="white"/>
<ellipse cx="1401.57" cy="523.6" rx="2.39955" ry="2.39965" fill="white"/>
<ellipse cx="1401.57" cy="537.998" rx="2.39955" ry="2.39965" fill="white"/>
<ellipse cx="1416" cy="494.809" rx="2.39955" ry="2.39965" fill="white"/>
<ellipse cx="1416" cy="509.206" rx="2.39955" ry="2.39965" fill="white"/>
<ellipse cx="1416" cy="523.604" rx="2.39955" ry="2.39965" fill="white"/>
<ellipse cx="1416" cy="538.001" rx="2.39955" ry="2.39965" fill="white"/>
<ellipse cx="97.0396" cy="855.48" rx="2.87946" ry="2.87957" fill="white"/>
<ellipse cx="97.0631" cy="872.762" rx="2.87946" ry="2.87957" fill="white"/>
<ellipse cx="97.0631" cy="890.039" rx="2.87946" ry="2.87957" fill="white"/>
<ellipse cx="97.0631" cy="907.317" rx="2.87946" ry="2.87957" fill="white"/>
<ellipse cx="114.34" cy="855.485" rx="2.87946" ry="2.87957" fill="white"/>
<ellipse cx="114.34" cy="872.762" rx="2.87946" ry="2.87957" fill="white"/>
<ellipse cx="114.34" cy="890.039" rx="2.87946" ry="2.87957" fill="white"/>
<ellipse cx="114.34" cy="907.317" rx="2.87946" ry="2.87957" fill="white"/>
<ellipse cx="131.649" cy="855.491" rx="2.87946" ry="2.87957" fill="white"/>
<ellipse cx="131.649" cy="872.767" rx="2.87946" ry="2.87957" fill="white"/>
<ellipse cx="131.649" cy="890.044" rx="2.87946" ry="2.87957" fill="white"/>
<ellipse cx="131.649" cy="907.321" rx="2.87946" ry="2.87957" fill="white"/>
<ellipse cx="148.893" cy="855.485" rx="2.87946" ry="2.87957" fill="white"/>
<ellipse cx="148.893" cy="872.762" rx="2.87946" ry="2.87957" fill="white"/>
<ellipse cx="148.893" cy="890.039" rx="2.87946" ry="2.87957" fill="white"/>
<ellipse cx="148.893" cy="907.317" rx="2.87946" ry="2.87957" fill="white"/>
<ellipse cx="166.169" cy="855.485" rx="2.87946" ry="2.87957" fill="white"/>
<ellipse cx="166.169" cy="872.762" rx="2.87946" ry="2.87957" fill="white"/>
<ellipse cx="166.169" cy="890.039" rx="2.87946" ry="2.87957" fill="white"/>
<ellipse cx="166.169" cy="907.317" rx="2.87946" ry="2.87957" fill="white"/>
<ellipse cx="183.485" cy="855.491" rx="2.87946" ry="2.87957" fill="white"/>
<ellipse cx="183.485" cy="872.767" rx="2.87946" ry="2.87957" fill="white"/>
<ellipse cx="183.485" cy="890.044" rx="2.87946" ry="2.87957" fill="white"/>
<ellipse cx="183.485" cy="907.321" rx="2.87946" ry="2.87957" fill="white"/>
<ellipse cx="200.725" cy="855.485" rx="2.87946" ry="2.87957" fill="white"/>
<ellipse cx="200.725" cy="872.762" rx="2.87946" ry="2.87957" fill="white"/>
<ellipse cx="200.725" cy="890.039" rx="2.87946" ry="2.87957" fill="white"/>
<ellipse cx="200.725" cy="907.317" rx="2.87946" ry="2.87957" fill="white"/>
<ellipse cx="218.024" cy="855.491" rx="2.87946" ry="2.87957" fill="white"/>
<ellipse cx="218.024" cy="872.767" rx="2.87946" ry="2.87957" fill="white"/>
<ellipse cx="218.024" cy="890.044" rx="2.87946" ry="2.87957" fill="white"/>
<ellipse cx="218.024" cy="907.321" rx="2.87946" ry="2.87957" fill="white"/>
<ellipse cx="235.317" cy="855.491" rx="2.87946" ry="2.87957" fill="white"/>
<ellipse cx="235.317" cy="872.767" rx="2.87946" ry="2.87957" fill="white"/>
<ellipse cx="235.317" cy="890.044" rx="2.87946" ry="2.87957" fill="white"/>
<ellipse cx="235.317" cy="907.321" rx="2.87946" ry="2.87957" fill="white"/>
<ellipse cx="252.553" cy="855.485" rx="2.87946" ry="2.87957" fill="white"/>
<ellipse cx="252.553" cy="872.762" rx="2.87946" ry="2.87957" fill="white"/>
<ellipse cx="252.553" cy="890.04" rx="2.87946" ry="2.87957" fill="white"/>
<ellipse cx="252.553" cy="907.317" rx="2.87946" ry="2.87957" fill="white"/>
<ellipse cx="269.858" cy="855.491" rx="2.87946" ry="2.87957" fill="white"/>
<ellipse cx="269.858" cy="872.767" rx="2.87946" ry="2.87957" fill="white"/>
<ellipse cx="269.858" cy="890.044" rx="2.87946" ry="2.87957" fill="white"/>
<ellipse cx="269.858" cy="907.321" rx="2.87946" ry="2.87957" fill="white"/>
<ellipse cx="287.151" cy="855.491" rx="2.87946" ry="2.87957" fill="white"/>
<ellipse cx="287.151" cy="872.767" rx="2.87946" ry="2.87957" fill="white"/>
<ellipse cx="287.151" cy="890.044" rx="2.87946" ry="2.87957" fill="white"/>
<ellipse cx="287.151" cy="907.321" rx="2.87946" ry="2.87957" fill="white"/>
<ellipse cx="304.385" cy="855.485" rx="2.87946" ry="2.87957" fill="white"/>
<ellipse cx="304.385" cy="872.762" rx="2.87946" ry="2.87957" fill="white"/>
<ellipse cx="304.385" cy="890.039" rx="2.87946" ry="2.87957" fill="white"/>
<ellipse cx="304.385" cy="907.317" rx="2.87946" ry="2.87957" fill="white"/>
<ellipse cx="321.692" cy="855.491" rx="2.87946" ry="2.87957" fill="white"/>
<ellipse cx="321.692" cy="872.767" rx="2.87946" ry="2.87957" fill="white"/>
<ellipse cx="321.692" cy="890.044" rx="2.87946" ry="2.87957" fill="white"/>
<ellipse cx="321.692" cy="907.321" rx="2.87946" ry="2.87957" fill="white"/>
<ellipse cx="338.938" cy="855.485" rx="2.87946" ry="2.87957" fill="white"/>
<ellipse cx="338.938" cy="872.762" rx="2.87946" ry="2.87957" fill="white"/>
<ellipse cx="338.938" cy="890.04" rx="2.87946" ry="2.87957" fill="white"/>
<ellipse cx="338.938" cy="907.317" rx="2.87946" ry="2.87957" fill="white"/>
<ellipse cx="356.213" cy="855.485" rx="2.87946" ry="2.87957" fill="white"/>
<ellipse cx="356.213" cy="872.762" rx="2.87946" ry="2.87957" fill="white"/>
<ellipse cx="356.213" cy="890.039" rx="2.87946" ry="2.87957" fill="white"/>
<ellipse cx="356.213" cy="907.317" rx="2.87946" ry="2.87957" fill="white"/>
<ellipse cx="373.526" cy="855.491" rx="2.87946" ry="2.87957" fill="white"/>
<ellipse cx="373.526" cy="872.767" rx="2.87946" ry="2.87957" fill="white"/>
<ellipse cx="373.526" cy="890.044" rx="2.87946" ry="2.87957" fill="white"/>
<ellipse cx="373.526" cy="907.321" rx="2.87946" ry="2.87957" fill="white"/>
<ellipse cx="390.768" cy="855.485" rx="2.87946" ry="2.87957" fill="white"/>
<ellipse cx="390.768" cy="872.762" rx="2.87946" ry="2.87957" fill="white"/>
<ellipse cx="390.768" cy="890.039" rx="2.87946" ry="2.87957" fill="white"/>
<ellipse cx="390.768" cy="907.317" rx="2.87946" ry="2.87957" fill="white"/>
<ellipse cx="408.045" cy="855.485" rx="2.87946" ry="2.87957" fill="white"/>
<ellipse cx="408.045" cy="872.762" rx="2.87946" ry="2.87957" fill="white"/>
<ellipse cx="408.045" cy="890.04" rx="2.87946" ry="2.87957" fill="white"/>
<ellipse cx="408.045" cy="907.317" rx="2.87946" ry="2.87957" fill="white"/>
<ellipse cx="425.36" cy="855.491" rx="2.87946" ry="2.87957" fill="white"/>
<ellipse cx="425.36" cy="872.767" rx="2.87946" ry="2.87957" fill="white"/>
<ellipse cx="425.36" cy="890.044" rx="2.87946" ry="2.87957" fill="white"/>
<ellipse cx="425.36" cy="907.321" rx="2.87946" ry="2.87957" fill="white"/>
<circle cx="1010.6" cy="78.0004" r="3.6" fill="white"/>
<circle cx="1010.6" cy="99.6005" r="3.6" fill="white"/>
<circle cx="1010.6" cy="121.2" r="3.6" fill="white"/>
<circle cx="1010.6" cy="142.8" r="3.6" fill="white"/>
<circle cx="1032.2" cy="78.0004" r="3.6" fill="white"/>
<circle cx="1032.2" cy="99.6005" r="3.6" fill="white"/>
<circle cx="1032.2" cy="121.2" r="3.6" fill="white"/>
<circle cx="1032.2" cy="142.8" r="3.6" fill="white"/>
<circle cx="1053.8" cy="78.0004" r="3.6" fill="white"/>
<circle cx="1053.8" cy="99.6005" r="3.6" fill="white"/>
<circle cx="1053.8" cy="121.2" r="3.6" fill="white"/>
<circle cx="1053.8" cy="142.8" r="3.6" fill="white"/>
<circle cx="1075.4" cy="78.0004" r="3.6" fill="white"/>
<circle cx="1075.4" cy="99.6005" r="3.6" fill="white"/>
<circle cx="1075.4" cy="121.2" r="3.6" fill="white"/>
<circle cx="1075.4" cy="142.8" r="3.6" fill="white"/>
<circle cx="1097" cy="78.0004" r="3.6" fill="white"/>
<circle cx="1097" cy="99.6005" r="3.6" fill="white"/>
<circle cx="1097" cy="121.2" r="3.6" fill="white"/>
<circle cx="1097" cy="142.8" r="3.6" fill="white"/>
<circle cx="1118.6" cy="78.0004" r="3.6" fill="white"/>
<circle cx="1118.6" cy="99.6005" r="3.6" fill="white"/>
<circle cx="1118.6" cy="121.2" r="3.6" fill="white"/>
<circle cx="1118.6" cy="142.8" r="3.6" fill="white"/>
<circle cx="1140.2" cy="78.0004" r="3.6" fill="white"/>
<circle cx="1140.2" cy="99.6005" r="3.6" fill="white"/>
<circle cx="1140.2" cy="121.2" r="3.6" fill="white"/>
<circle cx="1140.2" cy="142.8" r="3.6" fill="white"/>
<circle cx="1161.8" cy="78.0004" r="3.6" fill="white"/>
<circle cx="1161.8" cy="99.6005" r="3.6" fill="white"/>
<circle cx="1161.8" cy="121.2" r="3.6" fill="white"/>
<circle cx="1161.8" cy="142.8" r="3.6" fill="white"/>
<circle cx="1183.4" cy="78.0004" r="3.6" fill="white"/>
<circle cx="1183.4" cy="99.6005" r="3.6" fill="white"/>
<circle cx="1183.4" cy="121.2" r="3.6" fill="white"/>
<circle cx="1183.4" cy="142.8" r="3.6" fill="white"/>
<circle cx="1205" cy="78.0004" r="3.6" fill="white"/>
<circle cx="1205" cy="99.6005" r="3.6" fill="white"/>
<circle cx="1205" cy="121.2" r="3.6" fill="white"/>
<circle cx="1205" cy="142.8" r="3.6" fill="white"/>
<circle cx="1226.6" cy="78.0004" r="3.6" fill="white"/>
<circle cx="1226.6" cy="99.6005" r="3.6" fill="white"/>
<circle cx="1226.6" cy="121.2" r="3.6" fill="white"/>
<circle cx="1226.6" cy="142.8" r="3.6" fill="white"/>
<circle cx="1248.2" cy="78.0004" r="3.6" fill="white"/>
<circle cx="1248.2" cy="99.6005" r="3.6" fill="white"/>
<circle cx="1248.2" cy="121.2" r="3.6" fill="white"/>
<circle cx="1248.2" cy="142.8" r="3.6" fill="white"/>
<circle cx="1269.8" cy="78.0004" r="3.6" fill="white"/>
<circle cx="1269.8" cy="99.6005" r="3.6" fill="white"/>
<circle cx="1269.8" cy="121.2" r="3.6" fill="white"/>
<circle cx="1269.8" cy="142.8" r="3.6" fill="white"/>
<circle cx="1291.4" cy="78.0004" r="3.6" fill="white"/>
<circle cx="1291.4" cy="99.6005" r="3.6" fill="white"/>
<circle cx="1291.4" cy="121.2" r="3.6" fill="white"/>
<circle cx="1291.4" cy="142.8" r="3.6" fill="white"/>
<circle cx="1313" cy="78.0004" r="3.6" fill="white"/>
<circle cx="1313" cy="99.6005" r="3.6" fill="white"/>
<circle cx="1313" cy="121.2" r="3.6" fill="white"/>
<circle cx="1313" cy="142.8" r="3.6" fill="white"/>
<circle cx="1334.6" cy="78.0004" r="3.6" fill="white"/>
<circle cx="1334.6" cy="99.6005" r="3.6" fill="white"/>
<circle cx="1334.6" cy="121.2" r="3.6" fill="white"/>
<circle cx="1334.6" cy="142.8" r="3.6" fill="white"/>
<circle cx="1356.2" cy="78.0004" r="3.6" fill="white"/>
<circle cx="1356.2" cy="99.6005" r="3.6" fill="white"/>
<circle cx="1356.2" cy="121.2" r="3.6" fill="white"/>
<circle cx="1356.2" cy="142.8" r="3.6" fill="white"/>
<circle cx="1377.8" cy="78.0004" r="3.6" fill="white"/>
<circle cx="1377.8" cy="99.6005" r="3.6" fill="white"/>
<circle cx="1377.8" cy="121.2" r="3.6" fill="white"/>
<circle cx="1377.8" cy="142.8" r="3.6" fill="white"/>
<circle cx="1399.4" cy="78.0004" r="3.6" fill="white"/>
<circle cx="1399.4" cy="99.6005" r="3.6" fill="white"/>
<circle cx="1399.4" cy="121.2" r="3.6" fill="white"/>
<circle cx="1399.4" cy="142.8" r="3.6" fill="white"/>
<circle cx="1421" cy="78.0004" r="3.6" fill="white"/>
<circle cx="1421" cy="99.6005" r="3.6" fill="white"/>
<circle cx="1421" cy="121.2" r="3.6" fill="white"/>
<circle cx="1421" cy="142.8" r="3.6" fill="white"/>
<circle cx="898.6" cy="568" r="3.6" fill="white"/>
<circle cx="898.6" cy="589.6" r="3.6" fill="white"/>
<circle cx="898.6" cy="611.2" r="3.6" fill="white"/>
<circle cx="898.6" cy="632.8" r="3.6" fill="white"/>
<circle cx="920.2" cy="568" r="3.6" fill="white"/>
<circle cx="920.2" cy="589.6" r="3.6" fill="white"/>
<circle cx="920.2" cy="611.2" r="3.6" fill="white"/>
<circle cx="920.2" cy="632.8" r="3.6" fill="white"/>
<circle cx="941.799" cy="568" r="3.6" fill="white"/>
<circle cx="941.799" cy="589.6" r="3.6" fill="white"/>
<circle cx="941.799" cy="611.2" r="3.6" fill="white"/>
<circle cx="941.799" cy="632.8" r="3.6" fill="white"/>
<circle cx="963.401" cy="568" r="3.6" fill="white"/>
<circle cx="963.401" cy="589.6" r="3.6" fill="white"/>
<circle cx="963.401" cy="611.2" r="3.6" fill="white"/>
<circle cx="963.401" cy="632.8" r="3.6" fill="white"/>
<circle cx="985" cy="568" r="3.6" fill="white"/>
<circle cx="985" cy="589.6" r="3.6" fill="white"/>
<circle cx="985" cy="611.2" r="3.6" fill="white"/>
<circle cx="985" cy="632.8" r="3.6" fill="white"/>
<circle cx="1006.6" cy="568" r="3.6" fill="white"/>
<circle cx="1006.6" cy="589.6" r="3.6" fill="white"/>
<circle cx="1006.6" cy="611.2" r="3.6" fill="white"/>
<circle cx="1006.6" cy="632.8" r="3.6" fill="white"/>
<circle cx="1028.2" cy="568" r="3.6" fill="white"/>
<circle cx="1028.2" cy="589.6" r="3.6" fill="white"/>
<circle cx="1028.2" cy="611.2" r="3.6" fill="white"/>
<circle cx="1028.2" cy="632.8" r="3.6" fill="white"/>
<circle cx="1049.8" cy="568" r="3.6" fill="white"/>
<circle cx="1049.8" cy="589.6" r="3.6" fill="white"/>
<circle cx="1049.8" cy="611.2" r="3.6" fill="white"/>
<circle cx="1049.8" cy="632.8" r="3.6" fill="white"/>
<circle cx="1071.4" cy="568" r="3.6" fill="white"/>
<circle cx="1071.4" cy="589.6" r="3.6" fill="white"/>
<circle cx="1071.4" cy="611.2" r="3.6" fill="white"/>
<circle cx="1071.4" cy="632.8" r="3.6" fill="white"/>
<circle cx="1093" cy="568" r="3.6" fill="white"/>
<circle cx="1093" cy="589.6" r="3.6" fill="white"/>
<circle cx="1093" cy="611.2" r="3.6" fill="white"/>
<circle cx="1093" cy="632.8" r="3.6" fill="white"/>
<circle cx="1114.6" cy="568" r="3.6" fill="white"/>
<circle cx="1114.6" cy="589.6" r="3.6" fill="white"/>
<circle cx="1114.6" cy="611.2" r="3.6" fill="white"/>
<circle cx="1114.6" cy="632.8" r="3.6" fill="white"/>
<circle cx="1136.2" cy="568" r="3.6" fill="white"/>
<circle cx="1136.2" cy="589.6" r="3.6" fill="white"/>
<circle cx="1136.2" cy="611.2" r="3.6" fill="white"/>
<circle cx="1136.2" cy="632.8" r="3.6" fill="white"/>
<circle cx="1157.8" cy="568" r="3.6" fill="white"/>
<circle cx="1157.8" cy="589.6" r="3.6" fill="white"/>
<circle cx="1157.8" cy="611.2" r="3.6" fill="white"/>
<circle cx="1157.8" cy="632.8" r="3.6" fill="white"/>
<circle cx="1179.4" cy="568" r="3.6" fill="white"/>
<circle cx="1179.4" cy="589.6" r="3.6" fill="white"/>
<circle cx="1179.4" cy="611.2" r="3.6" fill="white"/>
<circle cx="1179.4" cy="632.8" r="3.6" fill="white"/>
<circle cx="1201" cy="568" r="3.6" fill="white"/>
<circle cx="1201" cy="589.6" r="3.6" fill="white"/>
<circle cx="1201" cy="611.2" r="3.6" fill="white"/>
<circle cx="1201" cy="632.8" r="3.6" fill="white"/>
<circle cx="1222.6" cy="568" r="3.6" fill="white"/>
<circle cx="1222.6" cy="589.6" r="3.6" fill="white"/>
<circle cx="1222.6" cy="611.2" r="3.6" fill="white"/>
<circle cx="1222.6" cy="632.8" r="3.6" fill="white"/>
<circle cx="1244.2" cy="568" r="3.6" fill="white"/>
<circle cx="1244.2" cy="589.6" r="3.6" fill="white"/>
<circle cx="1244.2" cy="611.2" r="3.6" fill="white"/>
<circle cx="1244.2" cy="632.8" r="3.6" fill="white"/>
<circle cx="1265.8" cy="568" r="3.6" fill="white"/>
<circle cx="1265.8" cy="589.6" r="3.6" fill="white"/>
<circle cx="1265.8" cy="611.2" r="3.6" fill="white"/>
<circle cx="1265.8" cy="632.8" r="3.6" fill="white"/>
<circle cx="1287.4" cy="568" r="3.6" fill="white"/>
<circle cx="1287.4" cy="589.6" r="3.6" fill="white"/>
<circle cx="1287.4" cy="611.2" r="3.6" fill="white"/>
<circle cx="1287.4" cy="632.8" r="3.6" fill="white"/>
<circle cx="1309" cy="568" r="3.6" fill="white"/>
<circle cx="1309" cy="589.6" r="3.6" fill="white"/>
<circle cx="1309" cy="611.2" r="3.6" fill="white"/>
<circle cx="1309" cy="632.8" r="3.6" fill="white"/>
</g>
<defs>
<clipPath id="clip0_170_6575">
<rect width="1440" height="1010" fill="white" transform="translate(0 0.400391)"/>
</clipPath>
</defs>
</svg>
