<svg id="text-circle" xmlns="http://www.w3.org/2000/svg" xmlns:xlink="http://www.w3.org/1999/xlink" width="205.1" height="205.102" viewBox="0 0 205.1 205.102">
  <defs>
    <clipPath id="clip-path">
      <rect id="Rectangle_55" data-name="Rectangle 55" width="205.1" height="205.1" fill="#d9d7d7"/>
    </clipPath>
  </defs>
  <text id="D" transform="translate(53.016 28.732) rotate(-29.293)" fill="#d9d7d7" font-size="17" font-family="GillSans, Gill Sans"><tspan x="0" y="0">D</tspan></text>
  <text id="i" transform="translate(67.261 21.231) rotate(-22.125)" fill="#d9d7d7" font-size="17" font-family="GillSans, Gill Sans"><tspan x="0" y="0">i</tspan></text>
  <text id="s" transform="translate(72.824 18.98) rotate(-17.189)" fill="#d9d7d7" font-size="17" font-family="GillSans, Gill Sans"><tspan x="0" y="0">s</tspan></text>
  <g id="Group_113" data-name="Group 113">
    <g id="Group_112" data-name="Group 112" clip-path="url(#clip-path)">
      <text id="c" transform="matrix(0.982, -0.189, 0.189, 0.982, 81.344, 15.071)" fill="#d9d7d7" font-size="15" font-family="GillSans, Gill Sans"><tspan x="0" y="0">c</tspan></text>
      <text id="o" transform="matrix(0.998, -0.064, 0.064, 0.998, 91.486, 13.175)" fill="#d9d7d7" font-size="15" font-family="GillSans, Gill Sans"><tspan x="0" y="0">o</tspan></text>
      <text id="v" transform="translate(103.948 12.57) rotate(3.502)" fill="#d9d7d7" font-size="15" font-family="GillSans, Gill Sans"><tspan x="0" y="0">v</tspan></text>
      <text id="e" transform="translate(114.235 13.291) rotate(10.307)" fill="#d9d7d7" font-size="15" font-family="GillSans, Gill Sans"><tspan x="0" y="0">e</tspan></text>
    </g>
  </g>
  <text id="r" transform="matrix(0.957, 0.291, -0.291, 0.957, 125.032, 15.712)" fill="#d9d7d7" font-size="16" font-family="GillSans, Gill Sans"><tspan x="0" y="0">r</tspan></text>
  <text id="_" data-name=" " transform="translate(134.043 18.601) rotate(22.279)" fill="#d9d7d7" font-size="16" font-family="GillSans, Gill Sans"><tspan x="0" y="0"> </tspan></text>
  <text id="t" transform="translate(141.612 19.613) rotate(27.252)" fill="#d9d7d7" font-size="14" font-family="GillSans, Gill Sans"><tspan x="0" y="0">t</tspan></text>
  <text id="h" transform="translate(147.487 26.027) rotate(33.558)" fill="#d9d7d7" font-size="17" font-family="GillSans, Gill Sans"><tspan x="0" y="0">h</tspan></text>
  <text id="e-2" data-name="e" transform="translate(157.518 31.64) rotate(40.729)" fill="#d9d7d7" font-size="16" font-family="GillSans, Gill Sans"><tspan x="0" y="0">e</tspan></text>
  <text id="_2" data-name=" " transform="translate(165.763 38.995) rotate(46.532)" fill="#d9d7d7" font-size="16" font-family="GillSans, Gill Sans"><tspan x="0" y="0"> </tspan></text>
  <text id="p" transform="matrix(0.609, 0.793, -0.793, 0.609, 169.946, 44.837)" fill="#d9d7d7" font-size="17" font-family="GillSans, Gill Sans"><tspan x="0" y="0">p</tspan></text>
  <text id="o-2" data-name="o" transform="translate(177.646 53.374) rotate(60.095)" fill="#d9d7d7" font-size="16" font-family="GillSans, Gill Sans"><tspan x="0" y="0">o</tspan></text>
  <text id="t-2" data-name="t" transform="translate(185.482 63.475) rotate(66.733)" fill="#d9d7d7" font-size="14" font-family="GillSans, Gill Sans"><tspan x="0" y="0">t</tspan></text>
  <text id="e-3" data-name="e" transform="translate(186.887 71.88) rotate(72.956)" fill="#d9d7d7" font-size="16" font-family="GillSans, Gill Sans"><tspan x="0" y="0">e</tspan></text>
  <g id="Group_115" data-name="Group 115">
    <g id="Group_114" data-name="Group 114" clip-path="url(#clip-path)">
      <text id="n" transform="translate(189.33 82.6) rotate(80.193)" fill="#d9d7d7" font-size="16" font-family="GillSans, Gill Sans"><tspan x="0" y="0">n</tspan></text>
      <text id="t-3" data-name="t" transform="matrix(0.061, 0.998, -0.998, 0.061, 194.076, 93.663)" fill="#d9d7d7" font-size="13" font-family="GillSans, Gill Sans"><tspan x="0" y="0">t</tspan></text>
      <text id="i-2" data-name="i" transform="translate(192.469 102.061) rotate(91.004)" fill="#d9d7d7" font-size="15" font-family="GillSans, Gill Sans"><tspan x="0" y="0">i</tspan></text>
      <text id="a" transform="matrix(-0.107, 0.994, -0.994, -0.107, 191.37, 108.074)" fill="#d9d7d7" font-size="16" font-family="GillSans, Gill Sans"><tspan x="0" y="0">a</tspan></text>
      <text id="l" transform="translate(191.117 118.182) rotate(101.285)" fill="#d9d7d7" font-size="15" font-family="GillSans, Gill Sans"><tspan x="0" y="0">l</tspan></text>
    </g>
  </g>
  <text id="_3" data-name=" " transform="translate(189.584 124.09) rotate(105.566)" fill="#d9d7d7" font-size="16" font-family="GillSans, Gill Sans"><tspan x="0" y="0"> </tspan></text>
  <text id="o-3" data-name="o" transform="translate(187.684 131.055) rotate(111.894)" fill="#d9d7d7" font-size="16" font-family="GillSans, Gill Sans"><tspan x="0" y="0">o</tspan></text>
  <text id="f" transform="matrix(-0.47, 0.883, -0.883, -0.47, 185.453, 143.916)" fill="#d9d7d7" font-size="13" font-family="GillSans, Gill Sans"><tspan x="0" y="0">f</tspan></text>
  <text id="_4" data-name=" " transform="matrix(-0.537, 0.844, -0.844, -0.537, 179.612, 148.367)" fill="#d9d7d7" font-size="16" font-family="GillSans, Gill Sans"><tspan x="0" y="0"> </tspan></text>
  <text id="y" transform="translate(176.508 155.061) rotate(128.055)" fill="#d9d7d7" font-size="15" font-family="GillSans, Gill Sans"><tspan x="0" y="0">y</tspan></text>
  <text id="o-4" data-name="o" transform="translate(169.342 162.507) rotate(135.278)" fill="#d9d7d7" font-size="16" font-family="GillSans, Gill Sans"><tspan x="0" y="0">o</tspan></text>
  <text id="u" transform="translate(159.782 170.356) rotate(142.877)" fill="#d9d7d7" font-size="17" font-family="GillSans, Gill Sans"><tspan x="0" y="0">u</tspan></text>
  <text id="r-2" data-name="r" transform="translate(151.157 177.928) rotate(149.549)" fill="#d9d7d7" font-size="16" font-family="GillSans, Gill Sans"><tspan x="0" y="0">r</tspan></text>
  <text id="_5" data-name=" " transform="translate(142.917 182.607) rotate(154.901)" fill="#d9d7d7" font-size="16" font-family="GillSans, Gill Sans"><tspan x="0" y="0"> </tspan></text>
  <text id="a-2" data-name="a" transform="translate(136.041 184.703) rotate(160.453)" fill="#d9d7d7" font-size="17" font-family="GillSans, Gill Sans"><tspan x="0" y="0">a</tspan></text>
  <text id="s-2" data-name="s" transform="translate(126.626 187.919) rotate(166.671)" fill="#d9d7d7" font-size="17" font-family="GillSans, Gill Sans"><tspan x="0" y="0">s</tspan></text>
  <g id="Group_117" data-name="Group 117">
    <g id="Group_116" data-name="Group 116" clip-path="url(#clip-path)">
      <text id="s-3" data-name="s" transform="translate(117.739 190.23) rotate(172.609)" fill="#d9d7d7" font-size="16" font-family="GillSans, Gill Sans"><tspan x="0" y="0">s</tspan></text>
      <text id="e-4" data-name="e" transform="translate(108.648 192.357) rotate(179.048)" fill="#d9d7d7" font-size="15" font-family="GillSans, Gill Sans"><tspan x="0" y="0">e</tspan></text>
      <text id="t-4" data-name="t" transform="translate(97.38 194.357) rotate(-174.857)" fill="#d9d7d7" font-size="13" font-family="GillSans, Gill Sans"><tspan x="0" y="0">t</tspan></text>
      <text id="s-4" data-name="s" transform="translate(89.489 190.57) rotate(-169.254)" fill="#d9d7d7" font-size="16" font-family="GillSans, Gill Sans"><tspan x="0" y="0">s</tspan></text>
    </g>
  </g>
  <text id="_6" data-name=" " transform="translate(80.291 189.404) rotate(-163.956)" fill="#d9d7d7" font-size="16" font-family="GillSans, Gill Sans"><tspan x="0" y="0"> </tspan></text>
  <text id="t-5" data-name="t" transform="translate(72.664 189.221) rotate(-158.975)" fill="#d9d7d7" font-size="14" font-family="GillSans, Gill Sans"><tspan x="0" y="0">t</tspan></text>
  <text id="h-2" data-name="h" transform="translate(66.127 183.482) rotate(-152.639)" fill="#d9d7d7" font-size="17" font-family="GillSans, Gill Sans"><tspan x="0" y="0">h</tspan></text>
  <text id="r-3" data-name="r" transform="matrix(-0.829, -0.56, 0.56, -0.829, 55.571, 178.954)" fill="#d9d7d7" font-size="16" font-family="GillSans, Gill Sans"><tspan x="0" y="0">r</tspan></text>
  <text id="o-5" data-name="o" transform="matrix(-0.754, -0.656, 0.656, -0.754, 47.736, 173.627)" fill="#d9d7d7" font-size="16" font-family="GillSans, Gill Sans"><tspan x="0" y="0">o</tspan></text>
  <text id="u-2" data-name="u" transform="translate(39.199 164.673) rotate(-131.376)" fill="#d9d7d7" font-size="17" font-family="GillSans, Gill Sans"><tspan x="0" y="0">u</tspan></text>
  <text id="g" transform="translate(31.821 156.073) rotate(-124.532)" fill="#d9d7d7" font-size="17" font-family="GillSans, Gill Sans"><tspan x="0" y="0">g</tspan></text>
  <text id="h-3" data-name="h" transform="matrix(-0.464, -0.886, 0.886, -0.464, 26.239, 147.846)" fill="#d9d7d7" font-size="17" font-family="GillSans, Gill Sans"><tspan x="0" y="0">h</tspan></text>
  <text id="_7" data-name=" " transform="translate(20.225 138.069) rotate(-111.658)" fill="#d9d7d7" font-size="16" font-family="GillSans, Gill Sans"><tspan x="0" y="0"> </tspan></text>
  <text id="r-4" data-name="r" transform="translate(17.594 131.347) rotate(-106.283)" fill="#d9d7d7" font-size="16" font-family="GillSans, Gill Sans"><tspan x="0" y="0">r</tspan></text>
  <g id="Group_119" data-name="Group 119">
    <g id="Group_118" data-name="Group 118" clip-path="url(#clip-path)">
      <text id="e-5" data-name="e" transform="matrix(-0.168, -0.986, 0.986, -0.168, 14.709, 122.284)" fill="#d9d7d7" font-size="15" font-family="GillSans, Gill Sans"><tspan x="0" y="0">e</tspan></text>
      <text id="a-3" data-name="a" transform="translate(13.986 111.282) rotate(-92.959)" fill="#d9d7d7" font-size="16" font-family="GillSans, Gill Sans"><tspan x="0" y="0">a</tspan></text>
      <text id="l-2" data-name="l" transform="matrix(0.037, -0.999, 0.999, 0.037, 12.64, 101.26)" fill="#d9d7d7" font-size="15" font-family="GillSans, Gill Sans"><tspan x="0" y="0">l</tspan></text>
      <text id="_8" data-name=" " transform="translate(12.916 95.152) rotate(-83.659)" fill="#d9d7d7" font-size="15" font-family="GillSans, Gill Sans"><tspan x="0" y="0"> </tspan></text>
      <text id="e-6" data-name="e" transform="translate(13.717 87.95) rotate(-77.807)" fill="#d9d7d7" font-size="15" font-family="GillSans, Gill Sans"><tspan x="0" y="0">e</tspan></text>
    </g>
  </g>
  <text id="s-5" data-name="s" transform="translate(17.445 77.558) rotate(-71.266)" fill="#d9d7d7" font-size="17" font-family="GillSans, Gill Sans"><tspan x="0" y="0">s</tspan></text>
  <text id="t-6" data-name="t" transform="translate(17.761 67.685) rotate(-65.628)" fill="#d9d7d7" font-size="14" font-family="GillSans, Gill Sans"><tspan x="0" y="0">t</tspan></text>
  <text id="a-4" data-name="a" transform="matrix(0.504, -0.864, 0.864, 0.504, 23.906, 61.506)" fill="#d9d7d7" font-size="17" font-family="GillSans, Gill Sans"><tspan x="0" y="0">a</tspan></text>
  <text id="t-7" data-name="t" transform="matrix(0.589, -0.808, 0.808, 0.589, 26.613, 51.211)" fill="#d9d7d7" font-size="14" font-family="GillSans, Gill Sans"><tspan x="0" y="0">t</tspan></text>
  <text id="e-7" data-name="e" transform="translate(33.125 45.723) rotate(-47.759)" fill="#d9d7d7" font-size="16" font-family="GillSans, Gill Sans"><tspan x="0" y="0">e</tspan></text>
  <text id="_9" data-name=" " transform="translate(40.693 37.675) rotate(-41.958)" fill="#d9d7d7" font-size="16" font-family="GillSans, Gill Sans"><tspan x="0" y="0"> </tspan></text>
</svg>
